<mxfile host="app.diagrams.net" modified="2024-05-17T04:03:02.172Z" agent="Mozilla/5.0 (Windows NT 10.0; Win64; x64) AppleWebKit/537.36 (KHTML, like Gecko) Chrome/124.0.0.0 Safari/537.36" etag="cn7OE0bTlZN9HEN8AFBW" version="24.4.3" type="github">
  <diagram name="Página-1" id="leBv45AqvVSVviyIaKpR">
    <mxGraphModel dx="880" dy="426" grid="0" gridSize="10" guides="1" tooltips="1" connect="1" arrows="1" fold="1" page="1" pageScale="1" pageWidth="827" pageHeight="1169" math="0" shadow="0">
      <root>
        <mxCell id="0" />
        <mxCell id="1" parent="0" />
        <mxCell id="lbyERjswG7J_w0kApY4t-1" value="" style="rounded=0;whiteSpace=wrap;html=1;" vertex="1" parent="1">
          <mxGeometry x="120" y="47" width="617" height="398" as="geometry" />
        </mxCell>
        <mxCell id="lbyERjswG7J_w0kApY4t-2" value="&lt;span style=&quot;font-size: 14px;&quot;&gt;&lt;font style=&quot;font-size: 14px;&quot;&gt;&lt;b&gt;Proposta da IA&lt;/b&gt;&lt;/font&gt;&lt;/span&gt;&lt;div&gt;&lt;b&gt;&lt;br&gt;&lt;/b&gt;&lt;/div&gt;&lt;div&gt;&lt;b&gt;&lt;br&gt;&lt;/b&gt;&lt;div style=&quot;font-size: 14px;&quot;&gt;&amp;nbsp;Usar o serviço de processamento de imagens do Custom&lt;br/&gt;Vision. A inteligência do sistema residirá na capacidade de reconhecer acordes musicais em&lt;br/&gt;fotos, uma tarefa que exige análise de padrões visuais e tomada de decisões com base nessa análise.&lt;br style=&quot;font-size: 14px;&quot;&gt;&lt;/div&gt;&lt;/div&gt;" style="rounded=0;whiteSpace=wrap;html=1;fontFamily=Helvetica;verticalAlign=top;fontSize=14;" vertex="1" parent="1">
          <mxGeometry x="120" y="47" width="230" height="250" as="geometry" />
        </mxCell>
        <mxCell id="lbyERjswG7J_w0kApY4t-3" value="&lt;b style=&quot;font-size: 14px;&quot;&gt;&lt;font style=&quot;font-size: 14px;&quot;&gt;Entrada&lt;/font&gt;&lt;/b&gt;&lt;div style=&quot;font-size: 14px;&quot;&gt;&lt;font style=&quot;font-size: 14px;&quot;&gt;&lt;br style=&quot;font-size: 14px;&quot;&gt;&lt;/font&gt;&lt;/div&gt;&lt;div style=&quot;text-align: left; font-size: 14px;&quot;&gt;&lt;font style=&quot;font-size: 14px;&quot;&gt;&amp;nbsp; As entradas são&amp;nbsp; &amp;nbsp; imagens contendo&amp;nbsp; &amp;nbsp;acordes musicais&lt;/font&gt;&lt;br style=&quot;font-size: 14px;&quot;&gt;&lt;/div&gt;" style="rounded=0;whiteSpace=wrap;html=1;fontFamily=Helvetica;verticalAlign=top;fontSize=14;" vertex="1" parent="1">
          <mxGeometry x="350" y="47" width="163" height="122" as="geometry" />
        </mxCell>
        <mxCell id="lbyERjswG7J_w0kApY4t-4" value="&lt;font style=&quot;font-size: 14px;&quot;&gt;&lt;b style=&quot;font-size: 14px;&quot;&gt;Saida&lt;/b&gt;&lt;/font&gt;&lt;div style=&quot;font-size: 14px;&quot;&gt;&lt;font style=&quot;font-size: 14px;&quot;&gt;&lt;br style=&quot;font-size: 14px;&quot;&gt;&lt;/font&gt;&lt;/div&gt;&lt;div style=&quot;font-size: 14px;&quot;&gt;&lt;div style=&quot;text-align: left; font-size: 14px;&quot;&gt;&lt;font style=&quot;font-size: 14px;&quot;&gt;&lt;span style=&quot;background-color: initial; font-size: 14px;&quot;&gt;&amp;nbsp;As saídas são os&amp;nbsp; &amp;nbsp;nomes dos&amp;nbsp;&lt;/span&gt;&lt;span style=&quot;background-color: initial; font-size: 14px;&quot;&gt;acordes&amp;nbsp; &amp;nbsp; &amp;nbsp;identificados&lt;/span&gt;&lt;/font&gt;&lt;/div&gt;&lt;/div&gt;" style="rounded=0;whiteSpace=wrap;html=1;fontFamily=Helvetica;verticalAlign=top;fontSize=14;" vertex="1" parent="1">
          <mxGeometry x="350" y="163" width="163" height="133" as="geometry" />
        </mxCell>
        <mxCell id="lbyERjswG7J_w0kApY4t-5" value="&lt;p style=&quot;line-height: 240%; font-size: 14px;&quot;&gt;&lt;font style=&quot;font-size: 14px;&quot;&gt;&lt;b&gt;Componentes do Grupo&lt;/b&gt;&lt;/font&gt;&lt;/p&gt;&lt;div style=&quot;font-size: 14px;&quot;&gt;&lt;ul style=&quot;&quot;&gt;&lt;li&gt;&lt;span style=&quot;background-color: initial;&quot;&gt;&lt;font&gt;Arthur Alves&lt;/font&gt;&lt;/span&gt;&lt;/li&gt;&lt;li style=&quot;&quot;&gt;&lt;font style=&quot;font-size: 14px;&quot;&gt;Felipe Vilhena&lt;/font&gt;&lt;/li&gt;&lt;li style=&quot;&quot;&gt;&lt;font style=&quot;font-size: 14px;&quot;&gt;Gabriel Cunha&lt;/font&gt;&lt;/li&gt;&lt;li style=&quot;&quot;&gt;&lt;font style=&quot;font-size: 14px;&quot;&gt;Iago Fereguetti&lt;/font&gt;&lt;/li&gt;&lt;/ul&gt;&lt;/div&gt;&lt;p&gt;&lt;/p&gt;" style="rounded=0;whiteSpace=wrap;html=1;align=center;verticalAlign=top;labelPosition=center;verticalLabelPosition=middle;fontFamily=Helvetica;horizontal=1;spacingTop=-14;" vertex="1" parent="1">
          <mxGeometry x="513" y="47" width="224" height="131" as="geometry" />
        </mxCell>
        <mxCell id="lbyERjswG7J_w0kApY4t-6" value="&lt;b style=&quot;font-size: 14px;&quot;&gt;&lt;font face=&quot;Helvetica&quot; style=&quot;font-size: 14px;&quot;&gt;Benefícios de usar&lt;/font&gt;&lt;/b&gt;&lt;div style=&quot;font-size: 14px;&quot;&gt;&lt;font face=&quot;Helvetica&quot;&gt;Capacidade de identificar os acordes musicais em fotos, proporcionando praticidade, melhor aprendizado e acessibilidade&lt;/font&gt;&lt;b&gt;&lt;font style=&quot;font-size: 14px;&quot;&gt;&lt;br&gt;&lt;/font&gt;&lt;/b&gt;&lt;/div&gt;&lt;div style=&quot;text-align: left; font-size: 14px;&quot;&gt;&lt;br&gt;&lt;/div&gt;" style="rounded=0;whiteSpace=wrap;html=1;fontFamily=Courier New;verticalAlign=top;" vertex="1" parent="1">
          <mxGeometry x="120" y="295" width="229" height="150" as="geometry" />
        </mxCell>
        <mxCell id="lbyERjswG7J_w0kApY4t-7" value="&lt;div style=&quot;font-size: 14px;&quot;&gt;&lt;b style=&quot;background-color: initial; font-size: 14px;&quot;&gt;&lt;font style=&quot;font-size: 14px;&quot;&gt;Técinica Usada&lt;/font&gt;&lt;/b&gt;&lt;/div&gt;&lt;div style=&quot;font-size: 14px;&quot;&gt;&lt;font style=&quot;font-size: 14px;&quot;&gt;Os recursos e técnicas de sistemas inteligentes implementados incluirão processamento de&lt;br style=&quot;font-size: 14px;&quot;&gt;imagens, reconhecimento de padrões e classificação de objetos&lt;/font&gt;&lt;b style=&quot;font-size: 14px;&quot;&gt;&lt;font style=&quot;font-size: 14px;&quot;&gt;&lt;br style=&quot;font-size: 14px;&quot;&gt;&lt;/font&gt;&lt;/b&gt;&lt;/div&gt;" style="rounded=0;whiteSpace=wrap;html=1;fontFamily=Helvetica;verticalAlign=top;fontSize=14;" vertex="1" parent="1">
          <mxGeometry x="350" y="295" width="219" height="150" as="geometry" />
        </mxCell>
        <mxCell id="lbyERjswG7J_w0kApY4t-8" value="&lt;font style=&quot;font-size: 14px;&quot;&gt;&lt;b&gt;Distribuidor&lt;/b&gt;&lt;/font&gt;&lt;div&gt;&lt;br&gt;&lt;/div&gt;&lt;div&gt;&lt;font style=&quot;font-size: 14px;&quot;&gt;O principal Distribuidor é o serviço da Microsoft Azure, Custom Vision AI&lt;/font&gt;&lt;/div&gt;" style="rounded=0;whiteSpace=wrap;html=1;verticalAlign=top;" vertex="1" parent="1">
          <mxGeometry x="514" y="178" width="224" height="116" as="geometry" />
        </mxCell>
        <mxCell id="lbyERjswG7J_w0kApY4t-9" value="&lt;font style=&quot;font-size: 14px;&quot;&gt;&lt;b&gt;Serviço do Fornecedor&lt;/b&gt;&lt;/font&gt;&lt;div style=&quot;font-size: 14px;&quot;&gt;&lt;font style=&quot;font-size: 14px;&quot;&gt;É especializado em processamento de&lt;br&gt;imagens e permite treinar modelos de visão computacional&lt;/font&gt;&lt;br&gt;&lt;/div&gt;" style="rounded=0;whiteSpace=wrap;html=1;" vertex="1" parent="1">
          <mxGeometry x="569" y="294" width="167" height="152" as="geometry" />
        </mxCell>
      </root>
    </mxGraphModel>
  </diagram>
</mxfile>
